# xmcd
# 
# Track frame offsets:
#     150
#     13338
#     23330
#     36428
#     51328
#     64163
#     81706
#     98567
#     121204
#     132817
#     148567
#     165977
#     177053
#     196224
#     208895
#     221256
#     236687
#     251585
#     268507
#     275372
# 
# Disc length: 3859
# 
# Revision: 0
# Processed by: cddbd v1.5.2PL0 Copyright (c) Steve Scherf et al.
# Submitted via: fre:ac v1.0.31
# 
DISCID=1c0f1114
DTITLE=Fleetwood Mac - The Collection
DYEAR=1990
DGENRE=Folk Rock
TTITLE0=Shake Your Moneymaker
TTITLE1=Long Grey Mare
TTITLE2=I Loved Another Woman
TTITLE3=Got To Move
TTITLE4=Black Magic Woman
TTITLE5=Need Your Love So Bad
TTITLE6=Doctor Brown
TTITLE7=Love That Burns
TTITLE8=Lazy Poker Blues
TTITLE9=Drifting
TTITLE10=Fleetwood Mac
TTITLE11=Love That Woman
TTITLE12=I've Lost My Baby
TTITLE13=Man Of The World
TTITLE14=Someone's Gonna Get Their Head Kicked In Tonite
TTITLE15=Watch Out
TTITLE16=Homework
TTITLE17=Rockin' Boogie
TTITLE18=Jigsaw Puzzle Blues
TTITLE19=Albatross
EXTD=Collection Gold es un álbum recopilatorio de Cock Robin, emitido por la filial europea de Sony Music en 1990. Contenía 14 pistas, incluidas varias remezclas y canciones que no estaban disponibles en los álbumes de estudio oficiales de Cock Robin.
EXTT0=
EXTT1=
EXTT2=
EXTT3=
EXTT4=
EXTT5=
EXTT6=
EXTT7=
EXTT8=
EXTT9=
EXTT10=
EXTT11=
EXTT12=
EXTT13=
EXTT14=
EXTT15=
EXTT16=
EXTT17=
EXTT18=
EXTT19=
PLAYORDER=
